<?xml version="1.0" encoding="UTF-8"?>
<!DOCTYPE svg PUBLIC "-//W3C//DTD SVG 1.1//EN" "http://www.w3.org/Graphics/SVG/1.1/DTD/svg11.dtd">
<!-- Creator: CorelDRAW 2020 (64 Bit) -->
<svg xmlns="http://www.w3.org/2000/svg" xml:space="preserve" width="74.2632mm" height="46.8098mm" version="1.1" style="shape-rendering:geometricPrecision; text-rendering:geometricPrecision; image-rendering:optimizeQuality; fill-rule:evenodd; clip-rule:evenodd"
viewBox="0 0 37452.96 23607.46"
 xmlns:xlink="http://www.w3.org/1999/xlink"
 xmlns:xodm="http://www.corel.com/coreldraw/odm/2003">
 <defs>
  <style type="text/css">
   <![CDATA[
    .str1 {stroke:black;stroke-width:38.43;stroke-miterlimit:22.9256}
    .str3 {stroke:#313A46;stroke-width:38.43;stroke-miterlimit:22.9256}
    .str0 {stroke:#4ED998;stroke-width:38.43;stroke-miterlimit:22.9256}
    .str2 {stroke:#7285F2;stroke-width:38.43;stroke-miterlimit:22.9256}
    .str4 {stroke:#313A46;stroke-width:177.93;stroke-linecap:round;stroke-linejoin:round;stroke-miterlimit:22.9256}
    .str5 {stroke:#313A46;stroke-width:177.93;stroke-linecap:round;stroke-linejoin:round;stroke-miterlimit:22.9256}
    .fil5 {fill:none}
    .fil3 {fill:#FEFEFE}
    .fil4 {fill:black}
    .fil1 {fill:#4ED998}
    .fil2 {fill:#7285F2}
    .fil0 {fill:#F2B33D}
   ]]>
  </style>
 </defs>
 <g id="Camada_x0020_1">
  <metadata id="CorelCorpID_0Corel-Layer"/>
  <g id="_1944033846832">
   <path class="fil0" d="M20446.49 19038.35l-326.1 325.59c-510.03,509.32 -1344.03,508.77 -1853.4,-1.36l-4422.7 -4428.95 6468 4032.05c43.78,27.23 88.51,51.39 134.2,72.67z"/>
   <path class="fil0" d="M17953.85 1438.59l326.1 -325.59c510.08,-509.37 1344.08,-508.82 1853.4,1.31l4422.7 4428.9 -6467.95 -4032c-43.78,-27.23 -88.61,-51.39 -134.25,-72.62z"/>
  </g>
  <g id="_1944033848368">
   <path class="fil0" d="M28760.02 8884.58l353.74 354.24c553.3,554.1 552.64,1460.13 -1.46,2013.48l-4811.43 4804.63 4380.23 -7026.54c29.6,-47.56 55.88,-96.18 78.93,-145.8z"/>
   <path class="fil0" d="M9288.09 9224.7l4811.48 -4804.68 -4380.28 7026.59c-29.6,47.56 -55.93,96.18 -78.93,145.8l-353.74 -354.24c-553.35,-554.05 -552.69,-1460.13 1.46,-2013.48z"/>
  </g>
  <g id="_1944033845824">
   <path class="fil1 str0" d="M21956.14 3922.51l5569.44 3471.89c586.84,365.79 767.64,1145.18 401.85,1731.96l-3982.62 6388.72c134.6,-588.35 181.91,-1193.09 152.26,-1805.95 -24.81,-513.51 -86.79,-1049.71 -240.11,-1541.98 -893.47,-2868.26 -3129.5,-2687.51 -5002.93,-4350.88 -407.19,-361.6 -602.27,-807.48 -628.54,-1349.83 -24.86,-514.26 82.1,-989.59 333.92,-1439.15 249.39,-445.52 590.82,-790.28 1037.91,-1037.75 444.92,-246.26 915.15,-338.76 1421.75,-293.82 336.89,29.91 649.47,111.91 941.13,244.14l-4.03 -17.35z"/>
   <path class="fil2 str0" d="M10472.96 11350.54l3982.62 -6388.72c-134.6,588.35 -181.91,1193.09 -152.26,1805.95 24.81,513.51 86.79,1049.71 240.11,1541.98 893.47,2868.26 3129.5,2687.51 5002.93,4350.88 407.19,361.6 602.27,807.48 628.54,1349.83 24.86,514.26 -82.1,989.59 -333.92,1439.15 -249.39,445.52 -590.82,790.28 -1037.91,1037.75 -444.92,246.26 -915.15,338.76 -1421.75,293.82 -336.89,-29.91 -649.47,-111.91 -941.13,-244.14l4.03 17.35 -5569.44 -3471.89c-586.89,-365.79 -767.69,-1145.18 -401.85,-1731.96z"/>
  </g>
  <path class="fil3" d="M23856.95 12167.15c153.32,492.27 215.3,1028.47 240.11,1541.98 46.35,958.93 -95.67,1898.14 -465.59,2785.7 -355.1,851.96 -876.97,1596.75 -1559.63,2217.38 -682,619.97 -1473.59,1078.71 -2344.67,1379.69 -766.73,265.02 -1566.09,386.97 -2372.96,384.95l-913.99 -3939.8c291.65,132.23 604.23,214.24 941.13,244.14 506.6,44.94 976.83,-47.56 1421.75,-293.82 447.09,-247.47 788.52,-592.23 1037.91,-1037.75 251.81,-449.56 358.78,-924.89 333.92,-1439.15 -26.28,-542.35 -221.35,-988.23 -628.54,-1349.83 -1873.42,-1663.37 -4109.46,-1482.62 -5002.93,-4350.88 -153.32,-492.27 -215.3,-1028.47 -240.11,-1541.98 -46.35,-958.93 95.67,-1898.14 465.59,-2785.7 355.1,-851.96 876.97,-1596.75 1559.63,-2217.38 682,-619.97 1473.59,-1078.71 2344.67,-1379.69 766.73,-265.02 1566.09,-386.97 2372.96,-384.95l913.99 3939.8c-291.65,-132.23 -604.23,-214.24 -941.13,-244.14 -506.6,-44.94 -976.83,47.56 -1421.75,293.82 -447.09,247.47 -788.52,592.23 -1037.91,1037.75 -251.81,449.56 -358.78,924.89 -333.92,1439.15 26.28,542.35 221.35,988.23 628.54,1349.83 1873.42,1663.37 4109.46,1482.62 5002.93,4350.88z"/>
  <polygon class="fil4 str1" points="19806.45,3885.84 19812.14,3895.27 19790.46,3893 "/>
  <path class="fil2 str2" d="M18102.73 11686.22c-100.06,-12.76 -199.51,-24.56 -297.91,-35.66 -1011.58,-113.57 -1165.6,-67.63 -2073.24,-453.84 -730.32,-310.77 -1374.34,-735.56 -1851.79,-1296.47 -316.67,-371.94 -555.82,-805.97 -750.09,-1231.26 -362.96,-794.01 -529.8,-1623.53 -450.41,-2472.41 76.25,-814.74 355.6,-1585.45 837.54,-2296 481.63,-709.79 1126.62,-1314.13 1903.63,-1807.71 683.82,-434.53 1447.67,-757.65 2259.99,-978.55l15.53 21.38c-643.93,262.86 -1239.79,597.83 -1776.19,1005.73 -779.84,592.99 -1376.01,1304.69 -1781.64,2118.78 -422.63,848.08 -584.87,1745.53 -531.86,2661.84 28.34,490.71 99.1,1003.06 274.3,1473.44 264.17,709.39 753.82,1326.23 1377.72,1850.18 775.55,651.29 951.92,647.4 1943.48,1048.4 297.45,120.23 601.46,250.6 900.93,392.16z"/>
  <polygon class="fil4 str3" points="18593.94,16591.06 18588.24,16581.63 18609.93,16583.89 "/>
  <path class="fil1 str0" d="M22668.8 9280.18c730.32,310.77 1374.34,735.56 1851.79,1296.47 316.67,371.94 555.82,805.97 750.09,1231.26 362.96,794.01 529.8,1623.53 450.41,2472.41 -76.25,814.74 -355.6,1585.45 -837.54,2296 -481.63,709.79 -1126.62,1314.13 -1903.63,1807.71 -683.82,434.53 -1447.67,757.65 -2259.99,978.55l-15.53 -21.38c643.93,-262.86 1239.79,-597.83 1776.19,-1005.73 779.84,-592.99 1376.01,-1304.69 1781.64,-2118.78 422.63,-848.08 584.87,-1745.53 531.86,-2661.84 -28.34,-490.71 -99.1,-1003.06 -274.3,-1473.44 -264.17,-709.39 -753.82,-1326.23 -1377.72,-1850.18 -775.55,-651.29 -951.92,-647.4 -1943.48,-1048.4 -297.45,-120.23 -601.46,-250.6 -900.93,-392.16 100.06,12.76 199.51,24.56 297.91,35.66 1011.58,113.57 1165.6,67.63 2073.24,453.84z"/>
  <g id="_1944033823312">
   <g>
    <path class="fil5 str4" d="M13505.08 23518.45l-1496.64 -2909.77 0 544.98 -685.48 0 0 2364.79m4663.06 0l-830.58 -1830 -793.71 1830m4268.42 0c-183.93,-84.98 -350.81,-204.1 -500.7,-357.47 -302.7,-309.4 -469.13,-690.88 -499.54,-1144.72l-785.94 1502.19m8341.57 0c-178.18,-77.77 -337.09,-180.6 -476.74,-308.45 -356.51,-326.4 -534.79,-765.82 -534.79,-1318.16 0,-264.27 34.34,-499.64 103.03,-706.51l-33.79 -9.03c-30.16,-10.09 -64.05,-16.39 -101.72,-18.86 -37.62,-2.52 -79.08,-3.78 -124.27,-3.78 -296.24,0 -515.98,77.77 -659.05,233.45 -143.13,155.69 -214.64,396.7 -214.64,723.1l0 1408.23m-2739.4 0l0 -331.04c-111.41,141.36 -236.63,251.76 -375.52,331.04m-15270.83 0c-198.65,-83.01 -378.3,-195.88 -538.77,-338.61 -236.98,-210.66 -400.94,-458.58 -491.72,-743.93 -10.64,45.14 -22.04,89.67 -34.14,133.8 -27.69,100.46 -56.48,183.27 -86.64,248.58 -135.61,261.09 -361.55,472.05 -677.92,632.73 -47.96,24.36 -96.53,46.7 -145.75,67.43m7334.89 0l0 -2364.79 -247.17 0 -152.05 0 -699.05 0 0 2364.79m-1205.19 0l0 -2364.79 -200.02 0c89.06,213.28 133.65,449.31 133.65,708.03 0,537.31 -190.84,976.73 -572.41,1318.16 -159.52,142.72 -338.25,255.59 -536.35,338.61"/>
   </g>
   <g>
    <path class="fil5 str5" d="M88.96 23127.09l557.38 -1054.5c135.56,120.53 266.18,218.42 391.71,293.77 125.53,75.35 251.05,133.09 376.58,173.19 65.26,15.13 129.36,27.69 192.05,37.72 62.84,10.09 126.79,15.03 192.1,15.03 190.84,0 344,-45.19 459.49,-135.56 115.49,-90.38 173.19,-210.91 173.19,-361.55 0,-145.65 -65.26,-254.89 -195.78,-327.66 -130.62,-72.88 -288.78,-139.3 -474.52,-199.61 -60.32,-20.12 -124.32,-40.14 -192.1,-60.22 -67.78,-20.12 -136.82,-42.72 -207.18,-67.83 -266.13,-90.38 -510.93,-227.2 -734.4,-410.47 -223.42,-183.37 -335.13,-485.82 -335.13,-907.69 0,-507.2 156.9,-916.41 470.69,-1227.78 313.84,-311.32 726.94,-467.01 1239.08,-467.01 95.47,0 192.1,5.09 290.04,15.03 97.84,10.09 194.57,22.59 289.94,37.72 175.81,35.15 347.78,81.6 515.98,139.35 168.24,57.75 332.76,129.36 493.43,214.64l0 -7.56 -519.76 1016.98c-140.66,-110.5 -279.95,-193.41 -418.04,-248.68 -138.08,-55.12 -275.01,-82.81 -410.57,-82.81 -175.71,0 -317.63,41.46 -425.5,124.27 -108.03,82.86 -162.04,189.63 -162.04,320.2 0,120.48 57.85,214.69 173.34,282.47 115.44,67.78 258.62,129.26 429.33,184.53 75.25,25.07 151.85,48.92 229.72,71.51 77.82,22.59 156.9,49.02 237.24,79.08 266.18,95.47 510.93,237.29 734.4,425.6 109.09,91.89 191.44,209.95 247.32,353.89 85.48,-312.18 256.15,-582.09 512.09,-809.55 384.15,-341.53 877.43,-512.25 1480.1,-512.25 597.58,0 1088.39,170.71 1472.53,512.25 79.28,70.45 150.34,145.09 213.23,223.92l0 -615.63 429.38 0 0 -519.76c0,-316.31 40.19,-571.2 120.53,-764.56 80.34,-193.31 221,-370.33 421.77,-531.01 105.51,-85.33 218.53,-156.95 338.96,-214.69 120.53,-57.7 241.12,-99.2 361.55,-124.27 45.19,-4.99 87.9,-10.04 128.1,-15.03 40.14,-5.09 80.34,-7.56 120.48,-7.56 65.26,0 121.8,1.26 169.45,3.73 47.76,2.57 94.21,8.83 139.4,18.86 40.14,10.04 80.34,22.59 120.48,37.62 40.19,15.13 85.38,35.25 135.56,60.32l0 1046.93c-70.25,-30.06 -129.26,-53.91 -176.92,-71.51 -47.71,-17.55 -91.64,-28.85 -131.88,-33.89 -15.03,-4.99 -32.63,-7.56 -52.75,-7.56 -20.02,0 -40.09,0 -60.22,0 -165.72,0 -278.74,49.02 -338.96,146.86 -60.22,97.99 -90.38,282.47 -90.38,553.65l0 421.87 699.05 0 152.05 0 247.17 0 0 -1024.44 1205.19 0 0 1024.44 450.52 0 234.97 0 1113.3 0 813.48 1800.2 858.67 -1800.2 753.26 0 858.67 1852.95 858.72 -1852.95 1340.75 0 -39.24 74.99c231.44,-120.28 490.11,-180.45 776.06,-180.45 221,0 415.57,35.15 583.81,105.45 168.19,70.25 327.61,183.27 478.25,338.96l0 -338.96 1205.19 0 0 3366.59 328.97 0 0 -3366.59 1205.24 0 0 557.33c140.56,-210.81 297.5,-364.02 470.69,-459.39 173.29,-95.47 390.45,-143.13 651.59,-143.13 10.04,0 20.07,0 30.16,0 10.04,0 20.07,0 30.06,0 25.17,0 50.28,1.21 75.35,3.73 25.12,2.47 57.75,6.3 97.94,11.3l0 633.44c66.02,-87.75 142.12,-167.08 228.31,-237.99 369.12,-303.81 842.38,-455.66 1419.88,-455.66 617.55,0 1069.53,193.31 1355.78,581.19 286.21,387.98 429.38,867.49 429.38,1437.48l-2538.43 0c5.04,266.08 69.04,462.01 192.05,587.54 123.06,125.53 307.54,188.21 553.65,188.21 140.66,0 253.63,-25.07 338.96,-75.25 85.38,-50.28 165.72,-133.09 240.97,-248.58l1160 0c-120.43,414.25 -333.86,711.81 -640.24,893.82 -57.19,33.99 -116.3,64.86 -177.32,92.54l2187.12 0 0 -3871.27 -715.54 0 0 -1107.25 2018.57 0 0 4978.52 1115.27 0 0 -3871.27 -715.54 0 0 -1107.25 2018.62 0 0 4978.52 407.19 0 1236.66 -1285.18c75.3,-75.35 159.47,-160.68 252.31,-258.62 92.9,-97.89 187.11,-204.61 282.47,-320.1 95.47,-114.23 190.84,-236.03 286.21,-364.02 95.47,-128.15 180.75,-257.41 256.1,-386.77 80.34,-135.56 145.65,-272.39 195.83,-410.47 50.28,-136.82 75.35,-266.08 75.35,-386.62 0,-178.28 -56.48,-331.49 -169.45,-460.75 -113.02,-129.26 -247.32,-194.57 -403.01,-194.57 -170.71,0 -305.07,56.48 -402.96,168.24 -97.94,111.71 -146.86,263.56 -146.86,456.92 0,5.04 0,8.78 0,11.3 0,2.47 0,3.83 0,3.83 0,25.07 1.26,51.39 3.73,79.08 2.52,27.59 8.83,63.95 18.86,109.14l-1438.74 -7.46c0,-595.06 188.37,-1065.9 564.95,-1413.63 376.68,-347.68 853.67,-522.23 1431.18,-522.23 542.3,0 993.02,173.24 1352.05,518.5 359.08,345.26 538.62,777.07 538.62,1296.83 0,234.76 -37.72,454.4 -113.02,656.53 -75.35,203.4 -195.88,401.8 -361.6,597.58 -40.14,45.19 -82.86,90.38 -128.05,138.08 -45.19,47.71 -92.85,94.11 -143.13,139.3l-843.59 773.39 1642.04 0 0 1061.71"/>
   </g>
  </g>
 </g>
</svg>
